<svg xmlns="http://www.w3.org/2000/svg" enable-background="new 0 0 25 25" viewBox="0 0 25 25"><g fill="#583689"><path d="m12.5 25c-.2 0-.399-.06-.571-.179l-11.5-8c-.278-.193-.439-.513-.429-.851s.191-.648.479-.824l11.5-7c.319-.194.721-.194 1.04 0l11.5 7c.289.176.469.485.479.824.01.338-.151.658-.428.851l-11.5 8c-.171.119-.37.179-.57.179zm-9.668-8.944 9.668 6.726 9.668-6.726-9.668-5.885z"/><path d="m12.5 17c-.2 0-.399-.06-.571-.179l-11.5-8c-.278-.193-.439-.513-.429-.851s.191-.648.479-.824l11.5-7c.319-.194.721-.194 1.04 0l11.5 7c.29.176.47.485.481.824.01.338-.151.658-.428.851l-11.5 8c-.173.119-.372.179-.572.179zm-9.668-8.944 9.668 6.726 9.668-6.726-9.668-5.885z"/><path d="M0 8h2v8h-2zM11.5 16h2v8h-2zM11.5 1h2v8h-2z"/></g></svg>