<svg xmlns="http://www.w3.org/2000/svg" enable-background="new 0 0 25 25" viewBox="0 0 25 25"><path fill="#583689" d="m17.943 23.812-.855-1.808c3.646-1.726 5.912-5.26 5.912-9.225 0-5.668-4.71-10.279-10.5-10.279s-10.5 4.611-10.5 10.279c0 3.846 2.165 7.339 5.649 9.118l-.909 1.781c-4.157-2.121-6.74-6.298-6.74-10.899 0-6.771 5.607-12.279 12.5-12.279s12.5 5.508 12.5 12.279c0 4.746-2.704 8.973-7.057 11.033z"/><g fill="#de002a"><path d="m11.438 22.437h-2c0-.122-.003-.991-.006-1.774-1.71-.066-2.543-1.175-2.76-1.868-.094-.186-1.007-.738-1.814-1.032l.687-1.879c.577.211 2.501.996 3.008 2.234.065.168.367.753 1.67.477.295-.061.601.013.833.201.234.189.37.473.372.773.004.669.01 2.677.01 2.868z"/><path d="m15.537 22.431h-2l.01-4.697c0-.451-.143-.668-.198-.714-.31-.256-.437-.673-.32-1.059.116-.385.452-.664.852-.706 1.79-.191 2.899-.753 2.899-2.965 0-.574-.189-1.054-.58-1.467-.269-.286-.347-.702-.198-1.065.024-.06.102-.278.087-.614-.243.098-.565.26-.973.527-.238.156-.531.204-.808.13-.573-.153-1.187-.233-1.826-.236-.628.003-1.242.083-1.814.236-.275.074-.567.026-.805-.128-.414-.27-.74-.432-.986-.53-.014.352.076.561.082.575.164.37.096.814-.183 1.107-.391.412-.581.891-.581 1.465 0 2.212 1.108 2.777 2.896 2.972l-.216 1.988c-3.105-.337-4.68-2.006-4.68-4.96 0-.876.257-1.689.75-2.38-.102-.53-.13-1.33.252-2.272.112-.278.344-.492.631-.58.32-.098 1.198-.209 2.755.708.609-.129 1.247-.197 1.9-.201.662.003 1.3.071 1.91.201 1.548-.919 2.427-.807 2.747-.708.287.089.519.302.632.581.377.934.36 1.726.258 2.268.492.693.75 1.507.75 2.384 0 2.48-1.111 4.053-3.308 4.69.05.239.076.491.076.753z"/></g></svg>