<svg id="Layer_1" data-name="Layer 1" xmlns="http://www.w3.org/2000/svg" viewBox="0 0 512 512"><title>squirrel</title><circle cx="256" cy="256" r="256" fill="#89914f"/><path d="M360.9,275.23c-3.15-.74-4.1-.06-4.69,2.41-3.64,15.56-5.3,31,11.48,43.52,3.42,2.57,6.09,5.29,5.78,7s.33,2.32,1.36,2.56,1.88-.1,2.36-1.7,4.08-2.9,8.28-3.67c20.62-3.76,26-18.32,29.63-33.87.58-2.47,0-3.51-3.11-4.25Z" fill="#9f5c20"/><path d="M413.53,283.57c2.2.51,3.55.51,4.66-1.16,1.81-2.7,3.71-6.74,1.06-11.18a60.07,60.07,0,0,0-19.32-20.05c-3.07-2-2.83-3.41-2.38-4.86a57.77,57.77,0,0,0,2-8.33c.44-2.62-.47-3.43-2-3.8s-2.76-.06-3.52,2.5a56.48,56.48,0,0,0-2,8.33c-.24,1.49-.66,2.88-4.29,3.28a60.14,60.14,0,0,0-26.22,9.37c-4.36,2.79-4.45,7.26-4,10.49.26,2,1.49,2.6,3.67,3.1Z" fill="#9f5c20"/><path d="M331.35,246.24a66.2,66.2,0,0,0,26.23-7.73,49.76,49.76,0,0,0,21.78-25.4c0-2.12,0-4.1.12-6.09-3.86-14.05-15.57-24.82-28.68-30.09a64.18,64.18,0,0,0-41.56-1.76c.35-6.44-.35-13.12-3.63-18.73-4.22-8-12.65-14.52-22.13-14.05-6.56.23-12.06,5.74-13.35,12.06-3.15,13.23,5.39,28.1,18.27,32.55a45.63,45.63,0,0,0-13.11,22c1.64,9,7.14,16.51,13.11,23.07,5.14,3.75,10.3,7.37,16.15,9.83a103.33,103.33,0,0,0,16.75,4.21C324.56,246.24,328,246.36,331.35,246.24Z" fill="#642d10"/><path d="M382.86,272.57c-1.17-7.37-10.65-10.77-16.39-6.43-9.25,6.21-21.19,6.32-31.62,3.86a56.74,56.74,0,0,1-13.93-4.91c-3.27-.59-7-1.4-10.06.47-5.84,3-7.14,12.3-2.1,16.62,3.62,2.93,8.31,4.23,12.4,6.1,3.52.93,7,1.88,10.54,2.69,14.52,2.92,30.44,2,43.55-5.5C380.18,283.23,384.38,278.2,382.86,272.57Z" fill="#642d10"/><path d="M283.93,153.27c7.38-2.22,14.63,3.52,17.09,10.18,2.36,5.63,1.76,13.94-4.56,16.51-7.6,3.16-15.68-3.39-17.8-10.53-2.34-5.73-1.17-13.82,5.27-16.16Z" fill="#ec582d"/><path d="M336.74,185.12c10.53-2.81,22.13,5.85,22,16.86.82,10.65-9.6,20.25-20.14,18.62-9.13-.83-16.5-9.49-15.8-18.62,0-8,6.2-15.22,13.93-16.86Z" fill="#feeac5"/><path d="M342.48,193c6.9-3.51,16.39,2.23,15.45,10.18.24,8.32-10.66,13.36-17,8.32-6.66-4.33-5.51-15.33,1.53-18.5Z" fill="#403f02"/><path d="M379.47,207c1.87-3.4,6.44-5.38,10.07-3.17,4.91,2.23,4.33,10.42-.82,12.18-3.4,1.52-7-.35-9.37-2.92,0-2.12,0-4.1.12-6.09Z" fill="#ec582d"/><path d="M310.86,265.55c3.05-1.87,6.79-1.06,10.06-.47A56.74,56.74,0,0,0,334.86,270c.47-8.07-1.87-15.92-3.51-23.76-3.38.12-6.79,0-10.06-.12a103.33,103.33,0,0,1-16.75-4.21c-5.86-2.46-11-6.09-16.15-9.83-6-6.56-11.47-14.05-13.11-23.07-.94,0-2.69-.12-3.63-.12a56.62,56.62,0,0,0-17.09,2.58c-5.74.94-11.24,3.4-16.4,6-5.73,2.22-10.53,6.21-15.8,9.14,2.69-19.67,3-41.32-7.49-58.89-13.46-21.2-38.52-34.9-63.7-33.14-19.54,1.29-38,11-51.63,25.06a29,29,0,0,0-4.44,34.18c7.72,14.51,27.38,19.91,41.9,12.65,7.14-2.93,11.36-10.65,19.32-12.3,6.67-2.45,14.52,1.54,16.86,8.21,4.21,11.59,1.51,24.23-.93,35.83-6.33,24.46-11,49.77-9.26,75.17,1.28,15.46,5.28,31.73,16.17,43.44,12.17,12.53,29.38,21,47.07,20.84h79.72c3.86.23,7.5-2.58,9.14-6.1,2.1-5.5-1.41-12.29-7.39-13.11-9.59-.58-19.31.35-28.91-.46,4.57-5.15,10.54-9.14,13.7-15.58,5.27-.7,8.89-5.5,12.77-8.77,6.1-5.51,11.94-11.84,15.8-19.21A68.58,68.58,0,0,0,331.7,291c-3.51-.81-7-1.76-10.54-2.69-4.09-1.87-8.78-3.17-12.4-6.1C303.72,277.85,305,268.59,310.86,265.55Z" fill="#642d10"/></svg>