<svg id="Layer_1" data-name="Layer 1" xmlns="http://www.w3.org/2000/svg" viewBox="0 0 512 512"><title>pumpkin</title><path d="M256,0C114.61,0,0,114.61,0,256S114.61,512,256,512,512,397.38,512,256,397.39,0,256,0Z" fill="#642d10"/><path d="M255.89,174.78a48.24,48.24,0,0,1,19.3-13.67l-1-10.13s-1.08-8.67-8.65-8.67h-18.4c-7.58,0-8.65,8.67-8.65,8.67L237,161.28A48.16,48.16,0,0,1,255.89,174.78Z" fill="#89914f"/><path d="M365.14,169.36c-17.49-5.61-32.94,5.52-37.94,9.71,3.08,10.64,7,29.91,6.43,58.05-.65,32.88-6.15,83.94-14.54,120a27.59,27.59,0,0,0,23.45,11.83c27.14-.36,44.25-37.72,52.3-114.17C400.06,205.38,390.34,177.45,365.14,169.36Z" fill="#ec582d"/><path d="M178.37,237.12c-.55-28,3.32-47.25,6.38-57.92-4.81-4.07-20.43-15.52-38.11-9.85-15.73,5-35.93,19.41-29.69,85.43,6.82,72.18,25.88,113.79,52.32,114.14a27.58,27.58,0,0,0,23.59-12C184.5,320.85,179,269.93,178.37,237.12Z" fill="#ec582d"/><path d="M312.7,355.94c8.33-35.56,13.79-86.3,14.43-118.93.55-27.62-3.41-46.49-6.32-56.54l-.15-.2c-.12-.16-12.43-15.65-30.21-15.62-5.66,0-19.83,1.66-31.2,16.09v176c5.89,8.71,15.05,13.32,25.9,12.94C302.88,369.08,311.59,357.53,312.7,355.94Z" fill="#ec582d"/><path d="M252.75,181c-11.38-14.67-25.71-16.34-31.39-16.35-16.68,0-28.53,13.59-30,15.42-2.93,9.92-7,28.95-6.44,56.93.65,32.76,6.15,83.75,14.53,119.34,1.93,2.57,10.62,12.76,27.25,13.33,11,.39,20.22-4.34,26.11-13.25Z" fill="#ec582d"/></svg>