<svg id="Layer_1" data-name="Layer 1" xmlns="http://www.w3.org/2000/svg" viewBox="0 0 512 512"><title>cloud</title><path d="M0,256C0,114.61,114.61,0,256,0S512,114.63,512,256,397.38,512,256,512,0,397.39,0,256Z" fill="#ff5b9a"/><path d="M376.94,233.23a69.63,69.63,0,0,0-23.21-7.16c-5.27-45.34-42.34-80.5-87.36-80.5-45.59,0-83.09,36-87.62,82.19a67.58,67.58,0,0,0-13.41-1.37c-38.63,0-69.95,29.83-69.95,70s31.31,70,69.95,70H346.67c38.63,0,69.95-29.85,69.95-70C416.62,267.51,400.4,244.22,376.94,233.23Z" fill="#fff"/></svg>