<svg id="Layer_1" data-name="Layer 1" xmlns="http://www.w3.org/2000/svg" viewBox="0 0 512 512"><title>cloud-thunder</title><path d="M0,256C0,114.61,114.61,0,256,0S512,114.63,512,256,397.38,512,256,512,0,397.39,0,256Z" fill="#009d00"/><path d="M391,227.13c-.65-30.6-23.49-55-52.72-58.07-4.18-37.9-35.5-67.35-73.55-67.35-38.31,0-69.85,29.88-73.67,68.17a58.08,58.08,0,0,0-11.26-1.15c-32.49,0-58.8,26.39-58.8,59.71s26.3,59.7,58.8,59.7H332.25c32.05,0,58.1-25.75,58.75-58.45Z" fill="#fff"/><polygon points="211.65 314.73 235.47 338.62 211.65 410.29 283.13 338.62 259.3 314.73 283.13 266.95 211.65 314.73" fill="#fff"/></svg>