<svg id="Layer_1" data-name="Layer 1" xmlns="http://www.w3.org/2000/svg" viewBox="0 0 512 512"><title>thermometer</title><path d="M0,256C0,114.61,114.61,0,256,0S512,114.63,512,256,397.38,512,256,512,0,397.39,0,256Z" fill="#2b77c1"/><path d="M268.39,119.7c10.25,0,18.59,9.73,18.59,21.68V283.47l6.75,3.45a55.77,55.77,0,1,1-50.67,0l6.74-3.45V141.38c0-12,8.34-21.68,18.59-21.68m0-12.39c-17.1,0-31,15.26-31,34.08V275.89a68.15,68.15,0,1,0,62,0V141.38c0-18.82-13.87-34.08-31-34.08Z" fill="#fff"/><rect x="175.46" y="132.09" width="49.57" height="12.39" fill="#fff"/><rect x="175.46" y="156.87" width="49.57" height="12.39" fill="#fff"/><rect x="175.46" y="181.65" width="49.57" height="12.39" fill="#fff"/><rect x="175.46" y="206.43" width="49.57" height="12.39" fill="#fff"/><rect x="175.46" y="231.22" width="49.57" height="12.39" fill="#fff"/></svg>