<svg id="Layer_1" data-name="Layer 1" xmlns="http://www.w3.org/2000/svg" viewBox="0 0 512 512"><title>storm</title><path d="M0,256C0,114.61,114.61,0,256,0S512,114.63,512,256,397.38,512,256,512,0,397.39,0,256Z" fill="#ff352e"/><path d="M199.63,312.35H106.46v12.19h66.82a27.71,27.71,0,0,0-4.8,15.58,28.35,28.35,0,1,0,31.14-27.77Z" fill="#fff"/><path d="M356.76,210.35c-3.87-37.42-32.8-66.51-68-66.51-35.43,0-64.56,29.51-68.08,67.32a50.27,50.27,0,0,0-10.42-1.12c-28.43,0-51.64,19.09-54,49.06h42.8a43.74,43.74,0,1,1,47.09,43.57l-.58,0H214.52a40.5,40.5,0,0,1,19,15.58H351.19c30,0,54.35-21.23,54.35-54.14C405.54,233.32,384.15,213.42,356.76,210.35Z" fill="#fff"/><path d="M240.42,231.08a28.19,28.19,0,0,0-28.34,28,28.58,28.58,0,0,0,4.65,15.57H106.46v12.46H242.62a28.07,28.07,0,0,0-2.2-56.08Z" fill="#fff"/></svg>