<svg id="Layer_1" data-name="Layer 1" xmlns="http://www.w3.org/2000/svg" viewBox="0 0 512 512"><title>hat</title><path d="M256,0C114.63,0,0,114.61,0,256S114.63,512,256,512,512,397.39,512,256,397.39,0,256,0Z" fill="#89914f"/><path d="M185.47,251.58l-4.93-9.86c6.4-34.68,14.28-76.37,16.82-87.06,3.06-12.9,5.94-25,12.28-31.34,8.73-8.74,29-10.94,44.3-10.94,23.72,0,40.25,3.41,48.11,10.56,5.14,4.8,8.86,13.07,12.11,22.59,2.44,7.21,9.8,48.22,18.3,99.23l-4.83,5.67c-8.62,10.08-26.48,13.73-39.85,15.4A21.27,21.27,0,0,0,275,261.58H238.88a20.59,20.59,0,0,0-2.75.2,21.55,21.55,0,0,0-10,2.9,173.5,173.5,0,0,1-20-4.84l-.34-.11C190.91,255.17,186.65,252.53,185.47,251.58Z" fill="#642d10"/><path d="M348.5,287.5l.14.89-2.39,3.05c-7.47,9.55-29.9,17.66-52.19,22.39a27.06,27.06,0,0,1-20.91,13.39H237a21.55,21.55,0,0,1-19.8-13.14,158.5,158.5,0,0,1-29.71-9.2c-6.54-2.76-18.06-8.2-22.08-13.49l-2.07-2.74.09-1.14C121,295.08,93.26,307.66,93.26,321.9c0,23.12,72.88,41.82,162.74,41.82S418.75,345,418.75,321.9C418.75,307.64,390.92,295.05,348.5,287.5Z" fill="#642d10"/><path d="M296.45,281.4c0,.56.09,1.13.09,1.7v20.73c0,.1,0,.21,0,.32,19.67-4.64,37.63-11.68,42.74-18.18h0c-1.51-9.31-3.31-19.88-4.75-29,0-.25-.09-.51-.13-.76v0c-9.42,11-26,15.52-39.94,17.68A21.15,21.15,0,0,1,296.45,281.4Z" fill="#ec582d"/><path d="M183.26,293.13c2.28,1.16,4.47,2.16,6.08,2.89l1.57.69c.33.13.62.22.9.34s.84.32,1.26.49a148.7,148.7,0,0,0,22.4,7.06V283.25a17.34,17.34,0,0,1,.11-1.85,21.08,21.08,0,0,1,3-9.23c-5-1.07-10.07-2.32-15.05-3.85-5.36-1.66-23.07-7-25.67-12.12v0c0,.06,0,.15,0,.22-1,6.2-2.28,12.81-3.34,18.28s-1.92,9.76-2.06,11.33v0C174.07,288.15,178.83,290.92,183.26,293.13Z" fill="#ec582d"/><path d="M284.75,275.13a12.39,12.39,0,0,1,2.67,5.74,12.83,12.83,0,0,1,.23,2.22v20.73s0,.06,0,.1a12.59,12.59,0,0,1-4.73,9.68,11.7,11.7,0,0,1-3.09,2.77,12.34,12.34,0,0,1-6.68,1.94H237a12.34,12.34,0,0,1-6.9-2.08,12.51,12.51,0,0,1-5.66-9.85c0-.23-.07-.45-.07-.71V283.25A12.72,12.72,0,0,1,237,270.61h.27c.54-.05,1.07-.16,1.63-.16H275A12.59,12.59,0,0,1,284.75,275.13Zm-16.94,6H242.28a6.22,6.22,0,0,0-7,7v10.64a8.87,8.87,0,0,0,4.66,7.79,9,9,0,0,0,4.27,1.14h25.54A8.94,8.94,0,0,0,275,306c.07-.12.19-.24.26-.35a8.76,8.76,0,0,0,1.5-4.94V290A9,9,0,0,0,267.81,281.1Z" fill="#feeac5"/><polygon points="244.12 298.78 267.84 298.81 267.89 290.03 244.17 290 244.12 298.78" fill="#ec582d"/></svg>